<?xml version="1.0" encoding="utf-8"?>
<!-- Generator: Adobe Illustrator 22.0.1, SVG Export Plug-In . SVG Version: 6.00 Build 0)  -->
<svg version="1.1" id="Capa_1" xmlns="http://www.w3.org/2000/svg" xmlns:xlink="http://www.w3.org/1999/xlink" x="0px" y="0px"
	 viewBox="0 0 512 512" style="enable-background:new 0 0 512 512;" xml:space="preserve">
<style type="text/css">
	.st0{fill:#FFFFFF;}
</style>
<g>
	<path class="st0" d="M473.6,236.3c6.8-10.4,10.8-22.8,10.8-36.1c0-31.3-21.8-57.5-51-64.4c4.8-8.2,7.5-17.8,7.5-28
		c0-31-25.2-56.2-56.2-56.2h-290v30h22.7c2.2,2.2,6.9,11,6.9,26.2c0,15.2-4.7,24-6.9,26.2H42.6v30h28.2c3.3,1.6,10.9,14.2,10.9,36.1
		c0,22-7.7,34.5-10.9,36.1H0v224.1h512V236.3L473.6,236.3z M353.3,266.3v90.5H164.4v-90.5H353.3z M353.3,387.1v43.3H96.4v-43.3
		H353.3z M383.3,387.1h31.4v43.3h-31.4V387.1z M383.3,356.8v-90.5h31.4v90.5L383.3,356.8z M444.6,266.3H482v90.5h-37.4V266.3z
		 M150.6,81.6h234.1c14.4,0,26.2,11.8,26.2,26.2S399.1,134,384.7,134H150.6c2.4-7.7,3.7-16.6,3.7-26.2S153,89.3,150.6,81.6
		L150.6,81.6z M105.7,164l312.6,0c19.9,0,36.1,16.2,36.1,36.1s-16.2,36.1-36.1,36.1H105.7c4-10.5,6.1-23.1,6.1-36.1
		C111.8,187.1,109.6,174.5,105.7,164L105.7,164z M30,266.3h104.4v90.5H30L30,266.3z M30,387.1h36.4v43.3H30L30,387.1z M482,430.4
		h-37.4v-43.3H482V430.4z"/>
	<path class="st0" d="M66.7,297.3h30v30h-30V297.3z"/>
</g>
</svg>
