<?xml version="1.0" encoding="utf-8"?>
<!-- Generator: Adobe Illustrator 22.0.1, SVG Export Plug-In . SVG Version: 6.00 Build 0)  -->
<svg version="1.1" id="Capa_1" xmlns="http://www.w3.org/2000/svg" xmlns:xlink="http://www.w3.org/1999/xlink" x="0px" y="0px"
	 viewBox="0 0 512 512" style="enable-background:new 0 0 512 512;" xml:space="preserve">
<style type="text/css">
	.st0{fill:#FFFFFF;}
</style>
<g>
	<path class="st0" d="M436.5,162.8V64.3H293.6V0.1H142.9v64.2H0v275.5h221.1v172.1h206.3c45.8,0,84.6-40.1,84.6-87.6V162.8
		L436.5,162.8z M308,162.8l98.5-57.4v57.4H308z M249.1,162.4h-61.6L70.5,94.3H366L249.1,162.4z M198.4,192.4h22.7v26.1h-22.7V192.4z
		 M172.9,30.1h90.7v34.2h-90.7L172.9,30.1z M30,309.8V105.4L168.4,186v62.5h52.7v61.3H30z M251.1,192.8H482l0,193.3l0,0.2
		c0.1,6-2.1,11.5-6,15.5c-3.7,3.8-8.8,5.9-14.2,5.9h-56v53.5c0,10.7-8,19.5-18.3,20.8H251.1L251.1,192.8z M431.4,481.7
		c2.8-6.3,4.4-13.3,4.4-20.6v-23.5h26c6.8,0,13.4-1.3,19.4-3.9c-1.9,11.4-7.3,22.3-15.5,31C456.2,474.8,444.2,480.7,431.4,481.7z"/>
	<path class="st0" d="M285.7,243.6h30v94.3h-30V243.6z"/>
	<path class="st0" d="M345.7,271.9h30v66h-30V271.9z"/>
	<path class="st0" d="M405.7,295.9h30v42h-30V295.9z"/>
</g>
</svg>
