<?xml version="1.0" encoding="utf-8"?>
<!-- Generator: Adobe Illustrator 22.0.1, SVG Export Plug-In . SVG Version: 6.00 Build 0)  -->
<svg version="1.1" id="Capa_1" xmlns="http://www.w3.org/2000/svg" xmlns:xlink="http://www.w3.org/1999/xlink" x="0px" y="0px"
	 viewBox="0 0 512 512" style="enable-background:new 0 0 512 512;" xml:space="preserve">
<style type="text/css">
	.st0{fill:#FFFFFF;}
</style>
<g>
	<path class="st0" d="M489.4,68.1c0-37.6-30.5-68.1-68.1-68.1H158.1c-24.9,0-45.2,20.3-45.2,45.2v75.3H22.6v271.1h90.4v30.1H52.7
		v45.2c0,24.9,20.3,45.2,45.2,45.2h361.4V90.4h30.1V68.1z M421.3,30.1c18.2,0,33.5,12.9,37.2,30.1H203.3V45.2
		c0-5.3-0.9-10.3-2.6-15.1H421.3z M263.5,150.6v30.1H52.7v-30.1H263.5z M52.7,210.8h210.8v150.6H52.7V210.8z M82.8,466.8v-15.1h30.1
		v15.1c0,8.3-6.8,15.1-15.1,15.1S82.8,475.1,82.8,466.8z M429.2,481.9H140.5c1.7-4.7,2.6-9.8,2.6-15.1c0-10.7,0-13.1,0-75.3h150.6
		V120.5H143.1V45.2c0-8.3,6.8-15.1,15.1-15.1c8.3,0,15.1,6.8,15.1,15.1v45.2h256V481.9z"/>
	<path class="st0" d="M82.8,240.9h30.1v30.1H82.8V240.9z"/>
	<path class="st0" d="M143.1,240.9h30.1v30.1h-30.1V240.9z"/>
	<path class="st0" d="M203.3,240.9h30.1v30.1h-30.1V240.9z"/>
	<path class="st0" d="M82.8,301.2h30.1v30.1H82.8V301.2z"/>
	<path class="st0" d="M143.1,301.2h30.1v30.1h-30.1V301.2z"/>
	<path class="st0" d="M203.3,301.2h30.1v30.1h-30.1V301.2z"/>
	<path class="st0" d="M323.8,180.7h75.3v30.1h-75.3V180.7z"/>
	<path class="st0" d="M323.8,120.5h75.3v30.1h-75.3V120.5z"/>
	<path class="st0" d="M323.8,240.9h75.3v30.1h-75.3V240.9z"/>
	<path class="st0" d="M323.8,301.2h75.3v30.1h-75.3V301.2z"/>
	<path class="st0" d="M323.8,361.4h75.3v30.1h-75.3V361.4z"/>
	<path class="st0" d="M188.2,421.6h210.8v30.1H188.2V421.6z"/>
</g>
</svg>
