<?xml version="1.0" encoding="utf-8"?>
<!-- Generator: Adobe Illustrator 22.0.1, SVG Export Plug-In . SVG Version: 6.00 Build 0)  -->
<svg version="1.1" id="Capa_1" xmlns="http://www.w3.org/2000/svg" xmlns:xlink="http://www.w3.org/1999/xlink" x="0px" y="0px"
	 viewBox="0 0 512 512" style="enable-background:new 0 0 512 512;" xml:space="preserve">
<style type="text/css">
	.st0{fill:#FFFFFF;}
</style>
<g>
	<path class="st0" d="M468.4,84.5c-1-18.1-8.6-35-21.6-47.8c-13.8-13.6-32.1-21-51.5-20.9c-19.4,0.2-37.5,7.9-51.1,21.7
		c-12.5,12.7-19.8,29.3-20.7,46.9H0v411.7h512V84.5L468.4,84.5z M371.8,156.9c7.6,2.7,15.8,4.1,24.1,4.1c0.2,0,0.4,0,0.6,0
		c9.2-0.1,18.1-1.9,26.2-5.1v43.8L397,189.2l-25.2,11.3L371.8,156.9z M341.8,231.9c-24.3-19.7-54.4-30.5-86.2-30.5
		c-38.7,0-75.8,16.5-101.7,45.2l22.3,20.1c20.3-22.5,49.3-35.3,79.5-35.3c28.6,0,55.5,11.1,75.7,31.4l20.3-20.3l46-20.7l25.1,10.2
		v125.4c-26.1,5.7-46.7,26.1-52.6,52H141.9c-5.8-25.8-26.1-46.1-51.9-51.9V225.1c25.8-5.8,46.1-26.1,51.9-51.9h199.9L341.8,231.9
		L341.8,231.9z M365.5,58.6c8-8.1,18.6-12.7,30-12.7c0.1,0,0.2,0,0.4,0c11.2,0,21.8,4.3,29.8,12.2c8.1,8,12.6,18.6,12.7,30
		c0.2,23.5-18.8,42.7-42.2,42.9c-0.1,0-0.2,0-0.4,0c-11.2,0-21.8-4.3-29.8-12.2c-8.1-8-12.6-18.6-12.7-30
		C353.2,77.4,357.5,66.7,365.5,58.6z M482,466.2H30V114.5h298.1c3.1,8.1,7.7,15.7,13.7,22.3v6.4H113.6v15
		c0,21.3-17.3,38.6-38.6,38.6H60v189.1h15c21.3,0,38.6,17.3,38.6,38.6v15h284.8v-15c0-21.3,17.6-38.6,39.2-38.6h15V133.6
		c4.6-5.7,8.3-12.2,11-19.1H482L482,466.2z"/>
	<path class="st0" d="M112.3,290.6h287.3v30H112.3L112.3,290.6z"/>
	<path class="st0" d="M185.6,348.6h140.7v30H185.6V348.6z"/>
</g>
</svg>
