<?xml version="1.0" encoding="utf-8"?>
<!-- Generator: Adobe Illustrator 22.0.1, SVG Export Plug-In . SVG Version: 6.00 Build 0)  -->
<svg version="1.1" id="Capa_1" xmlns="http://www.w3.org/2000/svg" xmlns:xlink="http://www.w3.org/1999/xlink" x="0px" y="0px"
	 viewBox="0 0 512 512" style="enable-background:new 0 0 512 512;" xml:space="preserve">
<style type="text/css">
	.st0{fill:#FFFFFF;}
</style>
<path class="st0" d="M484.7,276.6l-35.2-128.1c13-8.9,21.5-23.9,21.5-40.8c0-27.3-22.2-49.6-49.6-49.6c-18.9,0-35.3,10.6-43.7,26.2
	c-25-4.6-50.5-7.9-76.8-3.8V70.4c2.9-6.3,4.6-13.4,4.6-20.8c0-27.3-22.2-49.6-49.6-49.6c-27.3,0-49.6,22.2-49.6,49.6
	c0,7.4,1.7,14.5,4.6,20.8v10.2c-26.3-4.1-51.9-0.8-76.9,3.8c-8.4-15.6-24.8-26.2-43.7-26.2C63.2,58.2,41,80.4,41,107.7
	c0,16.9,8.5,31.8,21.5,40.8L27.3,276.6H0v29.1c0,24.1,9.8,45.6,27.5,60.3c16.3,13.5,38.6,20.9,63,20.9c24.4,0,46.7-7.4,63-20.9
	c17.8-14.7,27.5-36.2,27.5-60.3v-29.1h-27.3l-35.2-128.1c11.4-7.8,19.3-20.3,21.1-34.7c24.5-4.5,48.1-7.5,71.4-2.8v310.3H108
	c-24.8,0-45,20.2-45,45v45.6h386.1v-45.6c0-24.8-20.2-45-45-45H301V111.1c23.3-4.6,46.8-1.7,71.3,2.8c1.8,14.4,9.7,26.8,21.1,34.7
	l-35.2,128.1h-27.3v29.1c0,24.1,9.8,45.6,27.5,60.3c16.3,13.5,38.6,20.9,63,20.9c24.4,0,46.7-7.4,63-20.9
	c17.8-14.7,27.5-36.2,27.5-60.3v-29.1L484.7,276.6L484.7,276.6z M90.5,88.2c10.8,0,19.6,8.8,19.6,19.6s-8.8,19.6-19.6,19.6
	c-10.8,0-19.6-8.8-19.6-19.6S79.8,88.2,90.5,88.2z M90.5,357c-29.8,0-59.9-15.5-60.5-50.1h121.1C150.4,341.5,120.4,357,90.5,357z
	 M58.4,276.6l32.1-117.1l32.1,117.1H58.4z M256,30c10.8,0,19.6,8.8,19.6,19.6s-8.8,19.6-19.6,19.6c-10.8,0-19.6-8.8-19.6-19.6
	S245.3,30,256,30z M404.1,451.3c8.3,0,15,6.7,15,15V482H93v-15.6c0-8.3,6.7-15,15-15H404.1z M241.1,421.3V96.8
	c4.7,1.5,9.7,2.3,15,2.3c5.2,0,10.2-0.8,15-2.3v324.5H241.1z M421.5,88.2c10.8,0,19.6,8.8,19.6,19.6s-8.8,19.6-19.6,19.6
	c-10.8,0-19.6-8.8-19.6-19.6S410.7,88.2,421.5,88.2z M421.5,159.6l32.1,117.1h-64.3L421.5,159.6z M421.5,357
	c-29.8,0-59.9-15.5-60.5-50.1H482C481.4,341.5,451.3,357,421.5,357z"/>
</svg>
