<?xml version="1.0" encoding="utf-8"?>
<!-- Generator: Adobe Illustrator 22.0.1, SVG Export Plug-In . SVG Version: 6.00 Build 0)  -->
<svg version="1.1" id="Layer_1" xmlns="http://www.w3.org/2000/svg" xmlns:xlink="http://www.w3.org/1999/xlink" x="0px" y="0px"
	 viewBox="0 0 512 512" style="enable-background:new 0 0 512 512;" xml:space="preserve">
<style type="text/css">
	.st0{fill:#FFFFFF;}
</style>
<path class="st0" d="M241,270v-32.6c17.5-6.2,30-22.9,30-42.4c0-24.8-20.2-45-45-45c-8.3,0-15-6.7-15-15s6.7-15,15-15s15,6.7,15,15
	h30c0-19.6-12.5-36.2-30-42.4V60h-30v32.6c-17.5,6.2-30,22.9-30,42.4c0,24.8,20.2,45,45,45c8.3,0,15,6.7,15,15s-6.7,15-15,15
	s-15-6.7-15-15h-30c0,19.6,12.5,36.2,30,42.4V270H241z"/>
<path class="st0" d="M60,301h151v30H60V301z"/>
<path class="st0" d="M60,361h151v30H60V361z"/>
<path class="st0" d="M60,421h151v30H60V421z"/>
<path class="st0" d="M442.3,289.9c23.3-43.7-2.2-98.4-51.3-108.4V0H98.8L0,98.8V512h482v-61h30v-90h-90.4
	C423.6,336,430.7,311.7,442.3,289.9z M415.8,275.8c-13.9,26.2-22.2,55.4-24.3,85.2h-31.1c-2.1-29.7-10.6-59.5-24.3-85.3
	c-15.6-29.2,5.7-65.7,39.8-65.7C410,210,431.5,246.4,415.8,275.8z M90,51.2V90H51.2L90,51.2z M30,482V120h90V30h241v151.5
	c-49,10-74.6,64.6-51.3,108.3c11.5,21.5,18.6,46.3,20.7,71.2H241v90h30v31H30z M452,482c-18.5,0-132.7,0-151,0v-31h151V482z
	 M482,421H271v-30h211V421z"/>
</svg>
