<?xml version="1.0" encoding="utf-8"?>
<!-- Generator: Adobe Illustrator 22.0.1, SVG Export Plug-In . SVG Version: 6.00 Build 0)  -->
<svg version="1.1" id="Illustration" xmlns="http://www.w3.org/2000/svg" xmlns:xlink="http://www.w3.org/1999/xlink" x="0px"
	 y="0px" viewBox="0 0 1659.2 1874.2" style="enable-background:new 0 0 1659.2 1874.2;" xml:space="preserve">
<style type="text/css">
	.st0{fill:#BBA87E;}
	.st1{fill:#FFFFFF;}
	.st2{opacity:0.3;fill:#99865F;}
	.st3{fill:#45B54B;}
	.st4{opacity:0.3;fill:#6D996B;}
	.st5{opacity:0.3;fill:url(#SVGID_1_);}
</style>
<g>
	<g>
		<path class="st0" d="M1659.2,437.7v453.2c0,45.7-18.8,86.6-48.9,116.2c-29.5,29-70.1,46.6-114.7,46.6H944.4
			c-90.4,0-161.9-72.4-161.9-162.8V437.7c0-54.6,25.9-103.4,67.1-133.2c26.9-19.5,59.1-31.4,94.9-31.4h551.1
			C1585.9,273.2,1659.2,347.4,1659.2,437.7z"/>
		<path class="st0" d="M1279.5,953.9L1002,1231.8c-6.1,6.1-15.7,7.9-23.7,4.6c-7.9-3.3-13.6-11-13.6-19.6V928.5L1279.5,953.9z"/>
	</g>
</g>
<g>
	<path class="st1" d="M1378.2,664.8l-95.1-271.2h-126.9l-67,192.3L983.4,888.7h111.8l35.5-123.8h178.4l35.5,123.8h111.8
		L1378.2,664.8z M1156.9,682.4c9.6-30.9,18.1-59.1,25.7-83.8c19.7-64.9,32.3-107.8,37.6-128.5c1.8,8,4.8,18.9,8.9,32.7
		c3.2,10.6,14.8,48.4,34.8,113.1c6.1,19.6,12.9,42.4,20.6,66.4H1156.9z"/>
</g>
<path class="st2" d="M1610.2,1007.1c-29.5,29-70,46.6-114.7,46.6h-315.8l-177.3,177.7c-6.1,6.1-15.9,8.1-23.9,4.8
	c-7.9-3.3-13.8-10.8-13.8-19.4v-163.1h-20.3c-90.4,0-161.9-72.4-161.9-162.8V437.7c0-54.6,25.9-103,67.1-132.7
	c-4.3,95.7,16.3,252.7,195.8,274c15.3,1.8,29.8,3.6,44.1,5.5c33.6,4.3,64.5,8.8,93.2,13.8c29.6,5.1,56.6,10.8,81.3,17.3
	c46.2,12.2,84,27.4,114.3,47.7c45.9,30.9,74.5,73.6,88.5,136.3C1491.3,909.8,1531.4,976.9,1610.2,1007.1z"/>
<g>
	<g>
		<path class="st3" d="M920,1074.6v453.2c0,42.1-15.5,81.5-41.7,110.5c-29.9,33.2-72.9,54.9-121.1,54.9H206
			c-90.4,0-166.2-75-166.2-165.4v-453.2c0-57.6,31.1-107.4,76.1-136.6c25.6-16.6,57.4-25.3,90.1-25.3h551.1
			C847.5,912.7,920,984.3,920,1074.6z"/>
		<path class="st3" d="M734.3,1563.9v288.3c0,8.6-4.7,16.3-12.6,19.6c-7.9,3.3-16.8,1.5-22.9-4.6l-278.3-277.9L734.3,1563.9z"/>
	</g>
</g>
<g>
	<g>
		<rect x="242.7" y="1119" class="st1" width="477.9" height="75.6"/>
	</g>
	<g>
		<g>
			<path class="st1" d="M690.8,1559c-169-39.1-260.3-145.6-307.2-228c-50.4-88.6-61.1-168-61.6-171.4l74.8-9.7l-37.4,4.8l37.4-4.9
				c0.1,0.7,9.9,70.3,53.7,146.2c57.4,99.4,144,163.2,257.3,189.5L690.8,1559z"/>
		</g>
		<g>
			<path class="st1" d="M273.6,1559l-17-73.5c113.3-26.3,199.9-90,257.3-189.5c43.9-76,53.6-145.5,53.7-146.2l74.8,9.8
				c-0.4,3.3-11.2,82.8-61.6,171.4C534,1413.4,442.6,1519.9,273.6,1559z"/>
		</g>
	</g>
	<g>
		<rect x="445.5" y="1043.4" class="st1" width="72.2" height="110"/>
	</g>
</g>
<path class="st4" d="M878.7,1638.2c-29.9,33.2-73.3,54.9-121.5,54.9h-22.8v159c0,8.6-4.7,16.3-12.6,19.6c-7.9,3.3-16.8,2.4-22.9-3.7
	l-175.5-174.9H206c-90.4,0-166.2-75-166.2-165.4v-453.2c0-57.6,31.1-108.3,76.1-137.4c-3.3,81.1,12.7,204.3,125.3,253.2
	c3.3,1.4,7,2.8,10.5,4.1c18.1,6.8,38.6,11.8,61.6,14.5c6.8,0.8,13.5,1.6,20,2.4c29.4,3.6,57,7.3,82.9,11.2c46,7,86.6,14.9,122,24.6
	c26.5,7.2,50.2,15.6,71.2,25.4c68.2,31.7,108.3,79.6,125.7,157.7C759.8,1540.2,800,1607.9,878.7,1638.2z"/>
<path class="st3" d="M762.8,46.6l-60.6,98.2l-9.2,14.9c0,0-3.9-1.3-11.2-3.7c-3.6-1.3-8.2-2.6-13.6-4.2c-5.4-1.7-11.6-3.2-18.6-5
	c-14-3.4-31.3-7.2-51.4-9.9c-20.1-2.7-43-4.6-68.2-4.4c-25.1,0.2-52.5,2.4-81.1,7.2c-14.3,2.7-29,5.6-43.7,9.7
	c-1.9,0.5-3.7,1-5.6,1.5c-1.9,0.5-3.7,1.1-5.6,1.7c-3.7,1.1-7.4,2.3-11.2,3.4c-7.4,2.6-15,4.9-22.4,7.9
	c-30,11.1-59.9,25.9-88.7,43.8c-14.4,9-28.3,18.9-42,29.4l-10.1,8.2c-1.7,1.4-3.4,2.7-5,4.1l-4.7,4.1l-4.8,4.1
	c-1.6,1.4-3.1,2.7-4.9,4.4l-10.2,9.6l-1.3,1.2l-1.5-0.3l-1.1-0.7l-0.1,0.2l-1.3,3l-4.2,5.1c-3.1,3.1-6,6.4-8.9,9.6l-8.8,9.7
	c-2.8,3.3-5.6,6.7-8.5,10c-11.2,13.3-21.9,27.1-31.6,41.4l-3.7,5.4l-3.5,5.4c-2.3,3.6-4.7,7.2-6.9,10.9c-4.4,7.4-8.9,14.7-12.8,22.3
	c-4.2,7.4-7.9,15.1-11.7,22.6c-1.8,3.8-3.5,7.6-5.3,11.4c-0.9,1.9-1.8,3.8-2.6,5.7c-0.8,1.9-1.6,3.8-2.4,5.8
	c-6.7,15.3-12.1,30.8-17,46.1c-2.3,7.7-4.7,15.3-6.6,23c-2.1,7.6-3.8,15.2-5.5,22.7c-6.6,30.1-10,59.3-11.3,86.4
	c-1.3,27.1-0.4,52.1,1.6,74.2c2.1,22.1,5.3,41.2,8.5,56.9c1.7,7.8,3.1,14.9,4.7,20.8c1.5,6,2.7,11.1,4,15.3c0.6,2.2,1.2,4.1,1.7,5.8
	c1,3.5-0.6,7.2-3.6,8.9c-0.4,0.2-0.9,0.4-1.3,0.6l-0.6,0.2c-3.9,1.3-8.2-0.6-9.7-4.5c-0.6-1.6-1.4-3.4-2.2-5.6
	c-1.6-4-3.4-9.2-5.6-15.4c-2.3-6.1-4.4-13.2-6.9-21.1c-4.8-15.9-10-35.4-14.4-58.3c-4.3-22.8-7.8-49-9.1-77.8
	C-0.7,589.7,0,558.3,4,525.3c1.1-8.3,2.1-16.6,3.6-25c1.3-8.5,3.1-16.9,4.8-25.5c3.8-17.1,8.1-34.6,13.8-52c0.7-2.2,1.4-4.4,2.1-6.6
	c0.7-2.2,1.5-4.4,2.3-6.5c1.5-4.4,3-8.8,4.6-13.1c3.4-8.7,6.7-17.5,10.5-26.1c3.6-8.8,7.8-17.3,11.9-26c2.1-4.3,4.4-8.5,6.6-12.9
	l3.3-6.4l3.5-6.3c9.3-17,19.8-33.6,31.1-49.8c2.9-4,5.7-8,8.6-12.1l9-11.8c3-4,6.1-7.8,9.3-11.6l4.7-5.8l2.3-2.9l2.8-3.1l9.2-10.5
	c1.4-1.7,3.3-3.6,5-5.5l5.3-5.6l5.3-5.6c1.8-1.9,3.5-3.5,5.3-5.3c3.6-3.5,7.1-7,10.7-10.4c14.6-13.5,29.6-26.5,45.3-38.5
	c31.4-24,64.8-44.6,98.9-61.2c8.5-4.3,17.2-7.9,25.7-11.8c4.3-1.8,8.6-3.5,12.9-5.3c2.1-0.9,4.3-1.7,6.4-2.6
	c2.2-0.8,4.3-1.6,6.5-2.4c17.1-6.6,34.3-11.8,51.2-16.6c33.8-9.1,66.7-14.9,97.3-18.1c30.6-3.2,59-3.6,84.2-2.6
	c25.2,0.9,47,3.5,65,6.1c9,1.4,17,2.6,23.9,4.1c6.9,1.3,12.9,2.5,17.6,3.6C723.9,35.8,762.8,46.6,762.8,46.6z"/>
<linearGradient id="SVGID_1_" gradientUnits="userSpaceOnUse" x1="1692.4633" y1="92.4568" x2="1633.6478" y2="936.457" gradientTransform="matrix(0.6814 -0.7319 0.7319 0.6814 -1085.7152 1390.1635)">
	<stop  offset="0" style="stop-color:#FFC444"/>
	<stop  offset="0.9964" style="stop-color:#F36F56"/>
</linearGradient>
<path class="st5" d="M698.7,141.2c1.3,1.1,2.5,2.3,3.5,3.6l-9.2,14.9c0,0-3.9-1.3-11.2-3.7c-3.6-1.3-8.2-2.6-13.6-4.2
	c-5.4-1.7-11.6-3.2-18.6-5c-14-3.4-31.3-7.2-51.4-9.9c-20.1-2.7-43-4.6-68.2-4.4c-25.1,0.2-52.5,2.4-81.1,7.2
	c-14.3,2.7-29,5.6-43.7,9.7c-1.9,0.5-3.7,1-5.6,1.5c-1.9,0.5-3.7,1.1-5.6,1.7c-3.7,1.1-7.4,2.3-11.2,3.4c-7.4,2.6-15,4.9-22.4,7.9
	c-30,11.1-59.9,25.9-88.7,43.8c-14.4,9-28.3,18.9-42,29.4l-10.1,8.2c-1.7,1.4-3.4,2.7-5,4.1l-4.7,4.1l-4.8,4.1
	c-1.6,1.4-3.1,2.7-4.9,4.4l-10.2,9.6l-1.3,1.2l-1.5-0.3l-1.1-0.7l-0.1,0.2l-1.3,3l-4.2,5.1c-3.1,3.1-6,6.4-8.9,9.6l-8.8,9.7
	c-2.8,3.3-5.6,6.7-8.5,10c-11.2,13.3-21.9,27.1-31.6,41.4l-3.7,5.4l-3.5,5.4c-2.3,3.6-4.7,7.2-6.9,10.9c-4.4,7.4-8.9,14.7-12.8,22.3
	c-4.2,7.4-7.9,15.1-11.7,22.6c-1.8,3.8-3.5,7.6-5.3,11.4c-0.9,1.9-1.8,3.8-2.6,5.7c-0.8,1.9-1.6,3.8-2.4,5.8
	c-6.7,15.3-12.1,30.8-17,46.1c-2.3,7.7-4.7,15.3-6.6,23c-2.1,7.6-3.8,15.2-5.5,22.7c-6.6,30.1-10,59.3-11.3,86.4
	c-1.3,27.1-0.4,52.1,1.6,74.2c2.1,22.1,5.3,41.2,8.5,56.9c1.7,7.8,3.1,14.9,4.7,20.8c1.5,6,2.7,11.1,4,15.3c0.6,2.2,1.2,4.1,1.7,5.8
	c1,3.5-0.6,7.2-3.6,8.9c-15.3-55.5-71.9-302.5,75.2-484.8C292.2,109,588.9,46.3,698.7,141.2z"/>
<polygon class="st3" points="806,0 916.2,239 609.6,181.6 "/>
<path class="st0" d="M1044,1831.2l39.1-87.2l5.9-13.2c0,0,3.3,0.6,9.6,1.8c3.1,0.7,7,1.2,11.6,2c4.6,0.8,9.9,1.4,15.8,2.1
	c11.9,1.3,26.5,2.5,43.3,2.5c16.8,0,35.8-0.9,56.5-3.8c20.6-2.9,42.8-7.6,65.8-14.7c11.4-3.8,23.2-7.7,34.8-12.7
	c1.5-0.6,3-1.2,4.4-1.8c1.5-0.6,2.9-1.3,4.4-2c2.9-1.3,5.9-2.7,8.8-4c5.8-2.9,11.8-5.7,17.5-8.9c23.4-12.4,46.4-27.8,68.1-45.6
	c10.8-9,21.2-18.6,31.3-28.7l7.4-7.8c1.2-1.3,2.5-2.6,3.7-3.9l3.4-3.9l3.5-3.9c1.1-1.3,2.3-2.5,3.5-4.1l7.3-9l0.9-1.1l1.6,0.2
	l1.3,0.7l0.1-0.1l0.4-2.8l2.7-4.7c2.2-2.9,4.1-5.9,6.2-8.9l6.1-8.9c2-3,3.9-6.1,5.9-9.1c7.8-12.2,15.1-24.6,21.5-37.5l2.4-4.8
	l2.3-4.9c1.5-3.2,3.1-6.5,4.5-9.7c2.8-6.6,5.7-13,8.1-19.7c2.7-6.5,4.8-13.2,7.2-19.8c1.1-3.3,2.1-6.7,3.1-10c0.5-1.7,1-3.3,1.5-5
	c0.5-1.7,0.9-3.3,1.3-5c3.8-13.3,6.6-26.6,9-39.7c1.1-6.6,2.2-13.1,2.9-19.6c0.9-6.5,1.4-12.9,2.1-19.3c2.1-25.5,1.8-49.8-0.1-72.2
	c-1.8-22.4-5.3-42.8-9.4-60.8c-4.1-17.9-8.9-33.3-13.1-45.8c-2.2-6.2-4.2-11.9-6.1-16.6c-1.9-4.8-3.4-8.8-5-12.1
	c-0.8-1.7-1.4-3.3-2-4.6c-1.2-2.8-0.3-5.9,2-7.7c0.3-0.2,0.7-0.5,1-0.6l0.5-0.2c3.1-1.5,6.8-0.4,8.5,2.7c0.7,1.2,1.5,2.7,2.4,4.3
	c1.8,3.1,3.8,7.2,6.3,12c2.5,4.8,5.1,10.4,8,16.6c5.6,12.5,12.1,28,18.2,46.3c6,18.3,11.7,39.4,15.9,62.9c4.2,23.5,7,49.4,7.3,76.9
	c0,6.9,0.1,13.9-0.3,21c-0.1,7.1-0.7,14.3-1.2,21.5c-1.2,14.5-2.9,29.3-5.7,44.2c-0.3,1.9-0.6,3.7-1,5.6c-0.4,1.9-0.8,3.7-1.2,5.6
	c-0.8,3.7-1.5,7.5-2.4,11.3c-1.9,7.5-3.6,15.1-5.8,22.6c-2,7.6-4.5,15.1-6.9,22.6c-1.3,3.8-2.7,7.5-4,11.3l-2.1,5.6l-2.2,5.6
	c-5.8,15-12.7,29.7-20.1,44.2c-1.9,3.6-3.8,7.2-5.7,10.8l-6.1,10.6c-2,3.6-4.2,7-6.4,10.5l-3.3,5.2l-1.6,2.6l-1.9,2.9l-6.4,9.6
	c-1,1.6-2.3,3.3-3.5,5l-3.7,5.2l-3.8,5.2c-1.3,1.7-2.5,3.3-3.8,4.9c-2.5,3.2-5.1,6.5-7.6,9.7c-10.5,12.7-21.4,25-33,36.6
	c-23.2,23.1-48.4,43.7-74.6,61c-6.5,4.5-13.2,8.4-19.8,12.5c-3.3,1.9-6.7,3.8-10,5.7c-1.7,0.9-3.3,1.9-5,2.8
	c-1.7,0.9-3.4,1.8-5.1,2.7c-13.3,7.3-26.9,13.4-40.2,19.2c-26.8,11.2-53.2,19.5-78,25.4c-24.8,5.9-48.1,9.3-68.9,11.3
	c-20.8,2-39,2.2-54.1,2c-7.5-0.2-14.2-0.3-20.1-0.7c-5.8-0.4-10.8-0.6-14.9-1.1C1077.1,1835.9,1044,1831.2,1044,1831.2z"/>
<path class="st2" d="M1086.4,1746.6c-1.2-0.8-2.3-1.6-3.3-2.6l5.9-13.2c0,0,3.3,0.6,9.6,1.8c3.1,0.7,7,1.2,11.6,2
	c4.6,0.8,9.9,1.4,15.8,2.1c11.9,1.3,26.5,2.5,43.3,2.5c16.8,0,35.8-0.9,56.5-3.8c20.6-2.9,42.8-7.6,65.8-14.7
	c11.4-3.8,23.2-7.7,34.8-12.7c1.5-0.6,3-1.2,4.4-1.8c1.5-0.6,2.9-1.3,4.4-2c2.9-1.3,5.9-2.7,8.8-4c5.8-2.9,11.8-5.7,17.5-8.9
	c23.4-12.4,46.4-27.8,68.1-45.6c10.8-9,21.2-18.6,31.3-28.7l7.4-7.8c1.2-1.3,2.5-2.6,3.7-3.9l3.4-3.9l3.5-3.9
	c1.1-1.3,2.3-2.5,3.5-4.1l7.3-9l0.9-1.1l1.6,0.2l1.3,0.7l0.1-0.1l0.4-2.8l2.7-4.7c2.2-2.9,4.1-5.9,6.2-8.9l6.1-8.9
	c2-3,3.9-6.1,5.9-9.1c7.8-12.2,15.1-24.6,21.5-37.5l2.4-4.8l2.3-4.9c1.5-3.2,3.1-6.5,4.5-9.7c2.8-6.6,5.7-13,8.1-19.7
	c2.7-6.5,4.8-13.2,7.2-19.8c1.1-3.3,2.1-6.7,3.1-10c0.5-1.7,1-3.3,1.5-5c0.5-1.7,0.9-3.3,1.3-5c3.8-13.3,6.6-26.6,9-39.7
	c1.1-6.6,2.2-13.1,2.9-19.6c0.9-6.5,1.4-12.9,2.1-19.3c2.1-25.5,1.8-49.8-0.1-72.2c-1.8-22.4-5.3-42.8-9.4-60.8
	c-4.1-17.9-8.9-33.3-13.1-45.8c-2.2-6.2-4.2-11.9-6.1-16.6c-1.9-4.8-3.4-8.8-5-12.1c-0.8-1.7-1.4-3.3-2-4.6c-1.2-2.8-0.3-5.9,2-7.7
	c18.6,43.9,91.8,240.6-9.2,406.4C1423.8,1729,1186.8,1812.6,1086.4,1746.6z"/>
<polygon class="st0" points="1013.6,1874.2 897.1,1689.8 1155.2,1703.7 "/>
</svg>
