<?xml version="1.0" encoding="utf-8"?>
<!-- Generator: Adobe Illustrator 22.0.1, SVG Export Plug-In . SVG Version: 6.00 Build 0)  -->
<svg version="1.1" id="Capa_1" xmlns="http://www.w3.org/2000/svg" xmlns:xlink="http://www.w3.org/1999/xlink" x="0px" y="0px"
	 viewBox="0 0 512 512" style="enable-background:new 0 0 512 512;" xml:space="preserve">
<style type="text/css">
	.st0{fill:#FFFFFF;}
</style>
<g>
	<path class="st0" d="M241,241h30v30h-30V241z"/>
	<path class="st0" d="M512,301.1v-90.3h-34.7c-1.8-9-4.2-17.8-7.1-26.5l30-17.3l-45.1-78.2l-30,17.3c-6.1-6.8-12.5-13.3-19.4-19.4
		l17.3-30l-78.2-45.1l-17.3,30c-8.7-2.9-17.5-5.3-26.5-7.1V0h-90.3v34.7c-9,1.8-17.8,4.2-26.5,7.1l-17.3-30L88.9,56.9l17.3,30
		C99.4,93,93,99.4,86.9,106.3l-30-17.3l-45.1,78.2l30,17.3c-2.9,8.7-5.3,17.5-7.1,26.5H0v90.2h34.7c1.8,9,4.2,17.8,7.1,26.5
		l-30,17.3l45.1,78.2l30-17.3c6.1,6.8,12.5,13.3,19.4,19.4l-17.3,30l78.2,45.1l17.3-30c8.7,2.9,17.5,5.3,26.5,7.1V512h90.2v-34.7
		c9-1.8,17.8-4.2,26.5-7.1l17.3,30l78.2-45.1l-17.3-30c6.8-6.1,13.3-12.5,19.4-19.4l30,17.3l45.1-78.2l-30-17.3
		c2.9-8.7,5.3-17.5,7.1-26.5H512z M459.3,355.9l-15.1,26.2L417.9,367c-13.8,18.9-31.7,36.9-51,51l15.1,26.2l-26.2,15.1l-15.1-26.2
		c-21.3,9.5-45.9,16.1-69.7,18.6V482h-30.3v-30.3c-23.3-2.4-47.8-8.9-69.7-18.6l-15.1,26.2l-26.2-15.1L145,418
		c-18.9-13.8-36.9-31.7-51-51l-26.2,15.1l-15.1-26.2l26.2-15.1c-9.5-21.3-16.1-45.9-18.6-69.7H30v-30.3h30.3
		c2.4-23.3,8.9-47.8,18.6-69.7l-26.2-15.1l15.1-26.2L94.1,145c13.8-18.9,31.7-36.9,51-51l-15.1-26.2l26.2-15.1l15.1,26.2
		c21.3-9.5,45.9-16.1,69.7-18.6V30h30.3v30.3c23.3,2.4,47.8,8.9,69.7,18.6l15.1-26.2l26.2,15.1L367,94.1c18.9,13.8,36.9,31.7,51,51
		l26.2-15.1l15.1,26.2l-26.2,15.1c9.5,21.3,16.1,45.9,18.6,69.7H482v30.3h-30.3c-2.4,23.3-8.9,47.8-18.6,69.7L459.3,355.9z"/>
	<path class="st0" d="M256,90.4c-91.3,0-165.6,74.3-165.6,165.6S164.7,421.6,256,421.6S421.6,347.3,421.6,256S347.3,90.4,256,90.4z
		 M391.6,256c0,20.9-4.8,40.8-13.3,58.5l-47.9-47.9c1-7.1,1-14.3,0-21.3l47.9-47.9C386.9,215.2,391.6,235.1,391.6,256L391.6,256z
		 M314.5,133.7l-47.9,47.9c-7.1-1-14.3-1-21.3,0l-47.9-47.9c17.7-8.5,37.6-13.3,58.5-13.3S296.8,125.2,314.5,133.7L314.5,133.7z
		 M181.5,266.7l-47.9,47.9c-8.5-17.7-13.3-37.6-13.3-58.5s4.8-40.8,13.3-58.5l47.9,47.9C180.5,252.4,180.5,259.6,181.5,266.7
		L181.5,266.7z M197.5,378.3l47.9-47.9c7.1,1,14.3,1,21.3,0l47.9,47.9c-17.7,8.5-37.6,13.3-58.5,13.3S215.2,386.9,197.5,378.3
		L197.5,378.3z M340.6,362l-64.5-64.5l-8.4,2.2c-7.7,2-15.8,2-23.4,0l-8.4-2.2L171.4,362c-7.9-6.3-15.1-13.5-21.4-21.4l64.5-64.5
		l-2.2-8.4c-2-7.7-2-15.8,0-23.4l2.2-8.4L150,171.4c6.3-7.9,13.5-15.1,21.4-21.4l64.5,64.5l8.4-2.2c7.7-2,15.8-2,23.4,0l8.4,2.2
		l64.5-64.5c7.9,6.3,15.1,13.5,21.4,21.4l-64.5,64.5l2.2,8.4c2,7.7,2,15.8,0,23.4l-2.2,8.4l64.5,64.5
		C355.6,348.5,348.5,355.6,340.6,362L340.6,362z"/>
</g>
</svg>
