<svg width="61" height="22" viewBox="0 0 61 22" fill="none" xmlns="http://www.w3.org/2000/svg">
<path d="M5.61477 17.5611C4.29234 17.5387 3.05957 17.2473 1.91645 16.5749C1.42334 16.2835 0.975063 15.9249 0.616438 15.499C0.437126 15.2749 0.257813 15.0284 0.123329 14.7594C-0.100811 14.3335 -0.0111553 13.9973 0.325055 13.6611C0.706094 13.3025 1.24403 13.1456 1.75955 13.5042C2.00611 13.6835 2.23025 13.9077 2.43198 14.1318C2.6337 14.3335 2.7906 14.5577 2.99233 14.7594C3.59751 15.3646 4.33717 15.7008 5.1889 15.7904C5.97339 15.8801 6.75789 15.8577 7.51996 15.5887C7.83376 15.4766 8.14756 15.3197 8.41652 15.118C9.06653 14.6249 9.08895 13.7956 8.46135 13.2801C8.16997 13.0335 7.81135 12.8542 7.45272 12.6973C6.55616 12.3163 5.63718 12.0473 4.69579 11.8007C3.93372 11.6214 3.19405 11.3749 2.43198 11.1507C2.14059 11.0611 1.87162 10.9042 1.60266 10.7697C0.885406 10.3886 0.481954 9.78347 0.369883 8.99898C0.145743 7.40758 0.750922 6.12998 2.18542 5.43514C4.382 4.35927 6.60099 4.26961 8.77515 5.5248C9.1786 5.74894 9.55964 6.08515 9.91827 6.39895C10.1872 6.62309 10.3665 6.9593 10.4786 7.29551C10.6579 7.87827 10.3665 8.16966 9.85102 8.28173C9.40274 8.37138 8.99929 8.2369 8.68549 7.90069C8.61825 7.83345 8.57342 7.7662 8.52859 7.69896C8.01307 6.93688 7.27341 6.51102 6.37685 6.3317C5.48029 6.17481 4.58372 6.19722 3.73199 6.53343C3.41819 6.6455 3.1044 6.82481 2.85784 7.04895C2.25266 7.56448 2.25266 8.25931 2.83543 8.79725C3.21647 9.15587 3.66475 9.3576 4.15786 9.46967C5.23373 9.73864 6.33202 10.0076 7.40789 10.2766C8.10273 10.4559 8.77515 10.68 9.40274 11.0387C10.2096 11.4645 10.7924 12.0921 10.9941 13.0111C11.2407 14.1318 10.9941 15.118 10.12 15.9249C9.13377 16.8215 7.99066 17.337 6.66823 17.4939C6.3096 17.5163 5.95098 17.5387 5.61477 17.5611Z" fill="#999999"/>
<path d="M19.8473 11.6439C17.9869 11.6439 16.1714 11.6439 14.3334 11.6439C14.3334 11.8008 14.311 11.9577 14.311 12.0921C14.311 13.5042 14.311 14.9163 14.311 16.3284C14.311 16.5077 14.311 16.687 14.2662 16.8439C14.1317 17.2698 13.6834 17.5388 13.2575 17.5163C12.7868 17.4715 12.4058 17.1129 12.3386 16.6422C12.3161 16.5301 12.3386 16.4181 12.3386 16.306C12.3386 11.2628 12.3386 6.21967 12.3386 1.19892C12.3386 0.997196 12.361 0.79547 12.4282 0.616157C12.5851 0.19029 13.0334 -0.056264 13.5041 0.0109782C13.93 0.0782203 14.2886 0.436845 14.3334 0.885126C14.3558 1.01961 14.3334 1.15409 14.3334 1.28858C14.3334 3.88861 14.3334 6.46622 14.3334 9.06625C14.3334 9.22315 14.3558 9.38005 14.3558 9.51453C14.692 9.60419 19.4886 9.60419 19.8473 9.51453C19.8473 9.40246 19.8697 9.26798 19.8697 9.13349C19.8697 7.99038 19.8697 6.84726 19.8697 5.70414C19.8697 5.59207 19.8697 5.48 19.8697 5.36793C19.9145 4.85241 20.2955 4.47137 20.8111 4.44896C21.3266 4.42654 21.7749 4.80758 21.8421 5.32311C21.8645 5.43518 21.8421 5.54725 21.8421 5.65932C21.8421 9.20074 21.8421 12.7422 21.8421 16.2836C21.8421 16.3956 21.8421 16.5077 21.8421 16.6198C21.7749 17.1353 21.3266 17.5388 20.8335 17.5163C20.318 17.4939 19.9145 17.0905 19.8697 16.575C19.8697 16.4629 19.8697 16.3508 19.8697 16.2387C19.8697 14.8715 19.8697 13.4818 19.8697 12.1146C19.8473 11.9801 19.8473 11.8232 19.8473 11.6439Z" fill="#999999"/>
<path d="M25.2044 11.5766C25.2268 11.7559 25.2493 11.8904 25.2717 12.0249C25.6527 14.1094 27.3562 15.5439 29.4631 15.5887C31.0545 15.6111 32.3097 14.9611 33.2286 13.6611C33.7218 12.9662 34.5959 12.899 35.2011 13.5042C35.4925 13.818 35.5373 14.1766 35.2683 14.5352C35.1563 14.7145 35.0218 14.8714 34.8873 15.0283C34.1925 16.037 33.2511 16.687 32.0855 17.068C30.3821 17.6284 28.6786 17.6732 27.0424 17.0232C24.6889 16.1042 23.3665 14.3111 23.0975 11.8007C22.963 10.5904 23.0751 9.40241 23.5906 8.30412C24.5544 6.1972 26.1458 4.89719 28.4769 4.58339C29.7096 4.42649 30.9424 4.51615 32.0855 4.98684C34.1476 5.83858 35.358 7.42998 35.8063 9.60414C35.8959 10.0972 35.9407 10.6128 35.9632 11.1059C35.9856 11.5093 35.8959 11.599 35.4701 11.599C34.7304 11.599 33.9683 11.599 33.2286 11.599C30.7183 11.599 28.2079 11.599 25.7199 11.599C25.563 11.5766 25.4061 11.5766 25.2044 11.5766ZM33.8114 9.51448C33.5424 7.76619 31.4804 6.28686 29.4631 6.33169C27.4907 6.37651 25.451 7.9455 25.2941 9.51448C28.1182 9.51448 30.9424 9.51448 33.8114 9.51448Z" fill="#999999"/>
<path d="M39.258 11.6214C39.3028 11.8904 39.3253 12.0921 39.3701 12.2939C39.8184 14.1766 41.2977 15.4318 43.2253 15.5887C44.9288 15.7232 46.2736 15.0732 47.2598 13.6835C47.7529 13.0111 48.5374 12.899 49.165 13.437C49.5236 13.7508 49.5685 14.1542 49.2771 14.5353C49.1202 14.737 48.9633 14.9387 48.8064 15.1629C48.1564 16.0594 47.3046 16.6646 46.2512 17.0232C44.5477 17.606 42.8443 17.6957 41.1632 17.0681C38.8994 16.2387 37.5545 14.5801 37.1735 12.2042C36.9494 10.7473 37.0838 9.29039 37.7563 7.96796C38.7201 6.08518 40.2442 4.91965 42.3511 4.58344C43.7408 4.3593 45.1305 4.49378 46.4305 5.12137C48.2685 5.99552 49.3892 7.47485 49.815 9.44728C49.9271 9.98522 49.9719 10.5456 50.0168 11.0835C50.0616 11.4197 49.9047 11.5766 49.5461 11.599C49.3892 11.599 49.2323 11.599 49.0754 11.599C45.9374 11.599 42.7994 11.599 39.6615 11.599C39.5718 11.6214 39.4597 11.6214 39.258 11.6214ZM47.8426 9.55935C47.5736 7.78865 45.4443 6.26449 43.4943 6.37656C41.4546 6.48863 39.4149 8.05761 39.3477 9.55935C42.1494 9.55935 44.996 9.55935 47.8426 9.55935Z" fill="#999999"/>
<path d="M56.4501 12.5628C56.607 12.6973 56.6967 12.7869 56.7863 12.8766C57.8846 13.818 58.9829 14.737 60.0588 15.6784C60.126 15.7456 60.2157 15.8128 60.2829 15.8801C60.6864 16.2835 60.7312 16.8663 60.3502 17.2697C59.9915 17.6732 59.4088 17.7404 58.9829 17.3818C58.2208 16.7542 57.4812 16.1042 56.7415 15.4766C55.6656 14.5576 54.6122 13.6611 53.5363 12.7421C53.4466 12.6525 53.3346 12.5852 53.1777 12.4507C53.1777 12.6749 53.1553 12.8094 53.1553 12.9663C53.1553 15.5439 53.1553 18.1215 53.1553 20.6991C53.1553 20.8112 53.1553 20.9457 53.1553 21.0577C53.1104 21.6181 52.6846 22.0215 52.1242 21.9991C51.5863 21.9767 51.2052 21.5732 51.1828 21.0129C51.1828 20.9008 51.1828 20.7663 51.1828 20.6543C51.1828 15.5663 51.1828 10.4783 51.1828 5.39031C51.1828 5.23341 51.1828 5.07651 51.1828 4.91961C51.1828 4.56099 51.2276 4.49374 51.5639 4.49374C52.0345 4.47133 52.5052 4.47133 52.9535 4.47133C54.0742 4.47133 55.2173 4.51616 56.338 4.44892C58.2208 4.35926 60.3277 5.88341 60.5295 8.1024C60.7088 10.0973 59.3639 11.98 57.3243 12.3835C57.0777 12.4283 56.8087 12.4956 56.4501 12.5628ZM53.0208 10.9938C53.1328 11.0162 53.2225 11.0162 53.2897 11.0162C54.2311 11.0162 55.1725 11.0162 56.1139 11.0162C56.3829 11.0162 56.6518 10.9938 56.9208 10.9042C57.795 10.6352 58.4898 10.1197 58.7139 9.17828C59.095 7.58688 57.907 6.10755 56.2708 6.10755C55.307 6.10755 54.3432 6.10755 53.357 6.10755C53.2449 6.10755 53.1328 6.12997 53.0208 6.12997C53.0208 7.76619 53.0208 9.35759 53.0208 10.9938Z" fill="#999999"/>
</svg>
