<?xml version="1.0" encoding="utf-8"?>
<!-- Generator: Adobe Illustrator 22.0.1, SVG Export Plug-In . SVG Version: 6.00 Build 0)  -->
<svg version="1.1" id="Capa_1" xmlns="http://www.w3.org/2000/svg" xmlns:xlink="http://www.w3.org/1999/xlink" x="0px" y="0px"
	 viewBox="0 0 512 512" style="enable-background:new 0 0 512 512;" xml:space="preserve">
<style type="text/css">
	.st0{fill:#FFFFFF;}
</style>
<g>
	<path class="st0" d="M437,422h-15v-50.3c0-17.9,4.7-37,14.3-58.2c3.8-8.4,5.7-17.3,5.7-26.5c0-30.7-21.4-56.4-50-63.2V75
		c0-41.4-33.6-75-75-75H15C6.7,0,0,6.7,0,15v482c0,8.3,6.7,15,15,15h482c8.3,0,15-6.7,15-15C512,455.6,478.4,422,437,422z M377,252
		c19.3,0,35,15.7,35,35c0,4.9-1,9.7-3,14.1c-9.8,21.6-15.2,41.6-16.6,60.9h-30.7c-1.4-19.3-6.8-39.3-16.6-60.9c-2-4.4-3-9.2-3-14.1
		C342,267.7,357.7,252,377,252z M392,392v30h-30v-30H392z M332,32.6c12.8,4.5,22.9,14.7,27.4,27.4H332V32.6z M243.5,482H30V30h272
		v45c0,8.3,6.7,15,15,15h45v133.8c-28.6,6.8-50,32.6-50,63.2c0,9.2,1.9,18.1,5.7,26.5c9.6,21.3,14.3,40.3,14.3,58.2V422h-15
		C280.8,422,250.5,447.8,243.5,482z M274.6,482c6.2-17.5,22.9-30,42.4-30h120c19.6,0,36.2,12.5,42.4,30H274.6z"/>
	<path class="st0" d="M75,151h242c8.3,0,15-6.7,15-15s-6.7-15-15-15H75c-8.3,0-15,6.7-15,15S66.7,151,75,151z"/>
	<path class="st0" d="M75,211h242c8.3,0,15-6.7,15-15s-6.7-15-15-15H75c-8.3,0-15,6.7-15,15S66.7,211,75,211z"/>
	<path class="st0" d="M277,241H75c-8.3,0-15,6.7-15,15s6.7,15,15,15h202c8.3,0,15-6.7,15-15S285.3,241,277,241z"/>
	<path class="st0" d="M135,301c-41.4,0-75,33.6-75,75s33.6,75,75,75s75-33.6,75-75S176.4,301,135,301z M135,421
		c-24.8,0-45-20.2-45-45s20.2-45,45-45s45,20.2,45,45S159.8,421,135,421z"/>
	<circle class="st0" cx="135" cy="376" r="15"/>
</g>
</svg>
