<?xml version="1.0" encoding="utf-8"?>
<!-- Generator: Adobe Illustrator 22.0.1, SVG Export Plug-In . SVG Version: 6.00 Build 0)  -->
<svg version="1.1" id="Capa_1" xmlns="http://www.w3.org/2000/svg" xmlns:xlink="http://www.w3.org/1999/xlink" x="0px" y="0px"
	 viewBox="0 0 512 512.1" style="enable-background:new 0 0 512 512.1;" xml:space="preserve">
<style type="text/css">
	.st0{fill:#FFFFFF;}
</style>
<g>
	<path class="st0" d="M346.9,406.6h60.2v45.2h30.1v-90.4c0-33.2-27-60.2-60.2-60.2s-60.2,27-60.2,60.2v90.4h30.1L346.9,406.6
		L346.9,406.6z M377,331.3c16.6,0,30.1,13.5,30.1,30.1v15.1h-60.2v-15.1C346.9,344.8,360.4,331.3,377,331.3z"/>
	<path class="st0" d="M271.1,171l76.5-95.6h-76.5V0.1H0v271.1h240.9v45.2h-76.5l76.5,95.6v100.1H512V241H271.1V171z M30.1,241V30.2
		h210.8v75.3h44l-44,55v80.6H30.1V241z M481.9,271.1v210.8H271.1v-80.6l-44-55h44V271L481.9,271.1L481.9,271.1z"/>
	<path class="st0" d="M476.8,86.9c7.9-9.2,12.6-21.1,12.6-34.2c0-29.1-23.6-52.7-52.7-52.7S384,23.6,384,52.7c0,13,4.8,25,12.6,34.2
		c-21.1,13.3-35.2,36.9-35.2,63.7v45.2H512v-45.2C512,123.8,497.9,100.3,476.8,86.9z M414.1,52.7c0-12.5,10.1-22.6,22.6-22.6
		s22.6,10.1,22.6,22.6s-10.1,22.6-22.6,22.6C424.3,75.3,414.1,65.2,414.1,52.7z M481.9,165.7h-90.4v-15.1
		c0-24.9,20.3-45.2,45.2-45.2s45.2,20.3,45.2,45.2V165.7z"/>
	<path class="st0" d="M115.4,403.2c7.9-9.2,12.6-21.1,12.6-34.2c0-29.1-23.6-52.7-52.7-52.7S22.6,339.9,22.6,369
		c0,13,4.8,25,12.6,34.2C14.1,416.5,0,440.1,0,466.9v45.2h150.6v-45.2C150.6,440.1,136.5,416.5,115.4,403.2z M52.7,369
		c0-12.5,10.1-22.6,22.6-22.6s22.6,10.1,22.6,22.6s-10.1,22.6-22.6,22.6C62.8,391.6,52.7,381.4,52.7,369z M120.5,481.9H30.1v-15.1
		c0-24.9,20.3-45.2,45.2-45.2s45.2,20.3,45.2,45.2V481.9z"/>
	<path class="st0" d="M90.4,165.7c0-8.3,6.8-15.1,15.1-15.1h60.2v-30.1h-30.1c-8.3,0-15.1-6.8-15.1-15.1c0-8.3,6.8-15.1,15.1-15.1
		h30.1V60.2h-30.1c-24.9,0-45.2,20.3-45.2,45.2c0,5.9,1.1,11.5,3.2,16.7c-19.2,5.2-33.3,22.8-33.3,43.6c0,24.9,20.3,45.2,45.2,45.2
		h75.3v-30.1h-75.3C97.1,180.7,90.4,174,90.4,165.7z"/>
</g>
</svg>
