<?xml version="1.0" encoding="utf-8"?>
<!-- Generator: Adobe Illustrator 22.0.1, SVG Export Plug-In . SVG Version: 6.00 Build 0)  -->
<svg version="1.1" id="Layer_1" xmlns="http://www.w3.org/2000/svg" xmlns:xlink="http://www.w3.org/1999/xlink" x="0px" y="0px"
	 viewBox="0 0 100 108" style="enable-background:new 0 0 100 108;" xml:space="preserve">
<style type="text/css">
	.st0{fill:#fff;}
</style>
<g>
	<path class="st0" d="M91.6,60.5C89,82.4,73.3,83.8,70.4,84.8c-1.2,0.4-12.7,3.3-27,2.4l-15.6,17.3V84.6h-0.1
		c-20.9-6-20.2-28.3-20-40c0.2-11.7,2.4-21.3,8.8-27.8c11.5-10.6,35.1-9,35.1-9c20,0.1,29.5,6.2,31.7,8.3
		C90.6,22.5,94.4,37.9,91.6,60.5 M88.7,10.5C86.1,8.1,75.5,0.2,51.9,0.1c0,0-27.8-1.7-41.4,11c-7.5,7.7-10.2,19-10.4,33
		c-0.3,14-0.6,40.3,24.1,47.4l0,0v10.9c0,0-0.2,4.4,2.7,5.3c3.4,1.1,5.4-2.3,8.7-5.9c1.8-2,4.3-4.9,6.1-7.1
		c16.9,1.5,29.9-1.9,31.4-2.4c3.4-1.1,22.7-3.7,25.9-29.9C102.2,35.4,97.4,18.2,88.7,10.5"/>
	<path class="st0" d="M73.6,63.8c0,0-3.2-2.7-4.7-3.9c-1.5-1.1-3.8-2.6-5.1-3.3c-2.3-1.3-4.7-0.5-5.7,0.8l-2,2.6
		c-1,1.3-2.7,1.1-3.1,1c-3-0.8-6.2-2.6-9.5-5.8s-5.3-6.6-6-10L37.4,45c-0.2-1.4,0-2.1,0.6-3.1l0.1-0.1c1.4-1.3,3.9-2.8,4.3-4.3
		c1-2.6-3.4-8-4-8.9c0,0-3.2-4.2-4.3-5c-1.2-1-3.1-1.6-5-0.4H29c-5.5,3.7-7.4,5.8-6.9,9l0.3,1.3c2.8,8.7,8.1,18.1,16.1,26.4
		c7.9,8.1,16.5,13,24.9,16.4c2.2,0.7,4.5,0.1,6.8-1.9l0,0c1.8-1.7,3.2-3.5,4.2-5.4l0,0C75.5,67,75.1,65.1,73.6,63.8"/>
	<path class="st0" d="M60.5,44.6c-0.3,0-0.6-0.3-0.6-0.6c-0.1-2.3-0.7-4-1.8-5.2s-2.7-1.8-4.8-1.9c-0.3,0-0.6-0.3-0.6-0.7
		s0.3-0.6,0.7-0.6c2.5,0.1,4.4,0.9,5.7,2.3c1.3,1.4,2,3.4,2.2,6C61.2,44.3,60.9,44.6,60.5,44.6L60.5,44.6"/>
	<path class="st0" d="M66.7,46.8L66.7,46.8c-0.4,0-0.6-0.3-0.6-0.7c0.1-4.3-1.2-8-3.8-10.9c-1.3-1.5-2.9-2.6-4.7-3.4
		c-1.8-0.8-3.9-1.3-6.3-1.5c-0.3,0-0.6-0.3-0.6-0.7c0-0.4,0.3-0.6,0.7-0.6c5,0.4,9,2.2,11.8,5.3c2.8,3.2,4.2,7.1,4.1,11.8
		C67.4,46.5,67.1,46.8,66.7,46.8"/>
	<path class="st0" d="M73.1,49.3c-0.3,0-0.6-0.3-0.6-0.6c0-3.8-0.6-7.3-1.7-10.3s-2.8-5.6-5-7.8c-2.2-2.2-4.7-3.9-7.4-5
		s-5.8-1.7-9.1-1.7c-0.3,0-0.6-0.3-0.6-0.6c0-0.4,0.3-0.6,0.6-0.6l0,0c6.9,0.1,12.7,2.4,17.4,7.1c2.3,2.3,4.1,5.1,5.3,8.3
		c1.2,3.2,1.8,6.8,1.8,10.8C73.8,49,73.5,49.3,73.1,49.3L73.1,49.3z"/>
</g>
</svg>
