<?xml version="1.0" encoding="utf-8"?>
<!-- Generator: Adobe Illustrator 22.0.1, SVG Export Plug-In . SVG Version: 6.00 Build 0)  -->
<svg version="1.1" id="Layer_1" xmlns="http://www.w3.org/2000/svg" xmlns:xlink="http://www.w3.org/1999/xlink" x="0px" y="0px"
	 viewBox="0 0 100 100.5" style="enable-background:new 0 0 100 100.5;" xml:space="preserve">
<style type="text/css">
	.st0{fill:#fff;}
</style>
<g id="WA_Logo">
	<g>
		<path class="st0" d="M85.4,14.6C76,5.2,63.5,0,50.2,0C22.8,0,0.4,22.3,0.4,49.8c0,8.8,2.3,17.3,6.6,24.9l-7,25.8l26.4-6.9
			c7.3,4,15.5,6.1,23.8,6.1l0,0l0,0c27.4,0,49.8-22.3,49.8-49.8C100,36.5,94.8,24,85.4,14.6z M50.2,91.2L50.2,91.2
			c-7.4,0-14.7-2-21.1-5.8l-1.5-0.9L12,88.7l4.2-15.3l-1-1.6c-4.1-6.6-6.3-14.2-6.3-22C8.8,27,27.4,8.4,50.2,8.4
			c11.1,0,21.4,4.3,29.3,12.1c7.8,7.8,12.1,18.2,12.1,29.3C91.6,72.6,73,91.2,50.2,91.2z M72.9,60.2c-1.2-0.6-7.4-3.6-8.5-4
			s-2-0.6-2.8,0.6c-0.8,1.2-3.2,4-3.9,4.9C57,62.5,56.2,62.6,55,62s-5.3-1.9-10-6.2c-3.7-3.3-6.2-7.4-6.9-8.6s-0.1-1.9,0.5-2.5
			s1.2-1.5,1.9-2.2c0.6-0.7,0.8-1.2,1.2-2.1c0.4-0.8,0.2-1.6-0.1-2.2c-0.3-0.6-2.8-6.7-3.8-9.2c-1-2.4-2-2.1-2.8-2.1
			c-0.7,0-1.6,0-2.4,0c-0.8,0-2.2,0.3-3.3,1.6c-1.1,1.2-4.4,4.3-4.4,10.4s4.5,12,5.1,12.9c0.6,0.8,8.8,13.4,21.3,18.8
			c3,1.3,5.3,2,7.1,2.6c3,0.9,5.7,0.8,7.8,0.5c2.4-0.4,7.4-3,8.4-5.9s1-5.4,0.7-5.9C75,61.1,74.2,60.8,72.9,60.2z"/>
	</g>
</g>
</svg>
